<svg width="230" height="44" viewBox="0 0 230 44" fill="none" xmlns="http://www.w3.org/2000/svg">
<path d="M57.8075 12.2581V17.1881H56.0349V12.2581H53.1989V21.8128C52.9575 21.917 52.6558 22.0064 52.2862 22.0883C51.9166 22.1702 51.4716 22.2075 50.9512 22.2075H47.9567V14.6263H51.6828V12.9358H45V21.9617C45 22.5501 45.1886 23.0118 45.5582 23.3618C45.9278 23.7118 46.4331 23.8905 47.0667 23.8905H50.838C51.3886 23.8905 51.8488 23.831 52.2334 23.7044C52.6181 23.5778 52.9349 23.4288 53.1913 23.2575V30.3994H56.0274V18.8563H57.7999V30.3994H60.6435V12.2581H57.7999H57.8075Z" fill="#575756"/>
<path d="M69.1667 24.4863H66.1722V28.3886C66.1722 28.9993 66.3683 29.4834 66.7606 29.8334C67.1528 30.1834 67.6431 30.3621 68.2389 30.3621H78.6252V28.7014H69.1742V24.4938L69.1667 24.4863Z" fill="#575756"/>
<path d="M77.9766 16.3987V12.2134H74.9822V25.6183H77.9766V18.0818H80.1338V16.3912H77.9766V16.3987Z" fill="#575756"/>
<path d="M71.3994 21.9096C72.3121 21.0979 72.7646 20.1223 72.7646 18.9829C72.7646 18.3573 72.6138 17.769 72.3121 17.2179C72.0104 16.6668 71.5955 16.2125 71.0826 15.8476H73.4133V14.1869H69.6193V12.0197H66.6249V14.1869H62.8309V15.8476H65.1842C64.6789 16.2125 64.2716 16.6668 63.9623 17.2179C63.6531 17.7615 63.4947 18.3498 63.4947 18.9829C63.4947 20.1223 63.9548 21.0979 64.8675 21.9096C65.7877 22.7213 66.8738 23.1235 68.1259 23.1235C69.378 23.1235 70.4867 22.7213 71.3994 21.9096ZM66.8813 20.8C66.5118 20.2861 66.3307 19.6829 66.3307 18.9829C66.3307 18.2828 66.5118 17.6796 66.8813 17.1732C67.2509 16.6668 67.6658 16.4136 68.1259 16.4136C68.586 16.4136 69.0159 16.6668 69.378 17.1732C69.74 17.6796 69.921 18.2828 69.921 18.9829C69.921 19.6829 69.74 20.2936 69.378 20.8C69.0159 21.3138 68.6011 21.567 68.1259 21.567C67.6507 21.567 67.2509 21.3138 66.8813 20.8Z" fill="#575756"/>
<path d="M117.078 24.0916V22.4309H99.9032V24.0916H107.001V30.3845H110.003V24.0916H117.078Z" fill="#575756"/>
<path d="M105.794 19.6829C107.174 19.1095 108.072 18.3871 108.494 17.5232C108.924 18.3722 109.829 19.0871 111.225 19.668C112.613 20.2489 113.917 20.5468 115.132 20.5468L116.55 19.2733C115.026 19.2584 113.555 18.7669 112.13 17.8062C110.712 16.8381 110.003 15.6987 110.003 14.3656V12.3474H106.986V14.3656C106.986 15.6912 106.277 16.8381 104.866 17.8062C103.456 18.7669 101.977 19.2584 100.439 19.2733L101.857 20.5468C103.101 20.5468 104.414 20.2563 105.794 19.6829Z" fill="#575756"/>
<path d="M130.466 19.1318C130.466 20.4872 130.421 21.6043 130.345 22.483C130.262 23.3618 130.029 24.114 129.644 24.7395H132.284C132.638 24.1735 132.917 23.4363 133.114 22.5277C133.31 21.6192 133.415 20.5617 133.415 19.3478V12.5113H120.17V14.2018H130.466V19.1318Z" fill="#575756"/>
<path d="M129.003 18.7371H126.114V26.0353H124.628V18.7371H121.747V26.0353H118.813V27.7035H135.195V26.0353H129.003V18.7371Z" fill="#575756"/>
<path d="M152.023 15.654V12.3027H149.029V22.5798H152.023V17.3221H154.165V15.654H152.023Z" fill="#575756"/>
<path d="M150.183 23.9278C149.217 23.1011 148.056 22.6915 146.698 22.6915C145.34 22.6915 144.179 23.1011 143.213 23.9278C142.248 24.7544 141.773 25.7523 141.773 26.9215C141.773 28.0907 142.255 29.0812 143.213 29.9004C144.171 30.7196 145.333 31.1292 146.698 31.1292C148.063 31.1292 149.217 30.7196 150.183 29.9004C151.148 29.0812 151.623 28.0907 151.623 26.9215C151.623 25.7523 151.141 24.7544 150.183 23.9278ZM148.086 28.6493C147.694 29.1631 147.233 29.4163 146.698 29.4163C146.162 29.4163 145.702 29.1631 145.31 28.6493C144.918 28.1354 144.722 27.562 144.722 26.9215C144.722 26.2811 144.918 25.6779 145.31 25.1566C145.702 24.6353 146.162 24.3821 146.698 24.3821C147.233 24.3821 147.694 24.6427 148.086 25.1566C148.478 25.6779 148.674 26.2662 148.674 26.9215C148.674 27.5769 148.478 28.1429 148.086 28.6493Z" fill="#575756"/>
<path d="M144.005 20.8819C144.971 21.5596 145.921 21.9394 146.856 22.0139L148.32 20.7851C147.105 20.5542 146.027 19.9063 145.091 18.8339C144.156 17.769 143.681 16.3912 143.681 14.7156V14.3656H147.098V12.6974H137.27V14.3656H140.641V14.7156C140.641 16.3689 140.173 17.7317 139.246 18.8116C138.31 19.8914 137.239 20.5468 136.025 20.7851L137.488 22.0139C138.416 21.9245 139.374 21.5447 140.347 20.8744C141.328 20.2042 141.931 19.4818 142.165 18.7073C142.414 19.4818 143.025 20.2116 143.998 20.8819H144.005Z" fill="#575756"/>
<path d="M165.57 22.766H170.759V21.1053H160.727V18.6477H170.405V12.5113H157.574V14.2018H167.403V16.987H157.725V20.934C157.725 21.5149 157.891 21.9692 158.238 22.2894C158.578 22.6096 159.068 22.7735 159.702 22.7735H162.56V26.0428H155.862V27.7109H172.237V26.0428H165.555V22.7735L165.57 22.766Z" fill="#575756"/>
<path d="M187.119 12.2432V23.6597C186.75 23.7788 186.297 23.8756 185.761 23.9576C185.233 24.0395 184.638 24.0767 183.989 24.0767H181.681V22.7437C182.586 22.4532 183.325 21.9468 183.913 21.2319C184.494 20.517 184.788 19.7127 184.788 18.819C184.788 18.2679 184.668 17.7392 184.434 17.2551C184.2 16.7636 183.876 16.3391 183.484 15.9742H185.55V14.3135H181.688V12.1463H178.694V14.3135H174.855V15.9742H176.921C176.522 16.3391 176.205 16.7636 175.963 17.2551C175.73 17.7466 175.609 18.2679 175.609 18.819C175.609 19.7127 175.896 20.517 176.476 21.2319C177.05 21.9468 177.789 22.4532 178.694 22.7437V24.0767H174.742V25.7449H183.883C184.494 25.7449 185.075 25.6853 185.648 25.5662C186.222 25.447 186.712 25.2981 187.127 25.1044V30.3845H190.121V12.2432H187.127H187.119ZM180.195 21.3808C179.735 21.3808 179.335 21.1202 178.988 20.6063C178.641 20.085 178.468 19.4893 178.468 18.819C178.468 18.1488 178.641 17.5381 178.988 17.0242C179.335 16.5104 179.742 16.2572 180.195 16.2572C180.647 16.2572 181.077 16.5104 181.417 17.0242C181.756 17.5307 181.93 18.1339 181.93 18.819C181.93 19.5042 181.764 20.085 181.417 20.6063C181.077 21.1276 180.67 21.3808 180.195 21.3808Z" fill="#575756"/>
<path d="M199.648 18.7073C200.357 18.2828 200.854 17.7764 201.133 17.1955C201.42 17.769 201.925 18.2754 202.642 18.7073C202.642 18.6552 202.642 18.6701 202.649 18.7073C203.004 18.9158 203.404 19.1169 203.864 19.2956C205.252 19.8393 206.557 20.1074 207.771 20.1074L209.189 18.8116C207.975 18.7967 206.775 18.4988 205.591 17.9105C204.407 17.3296 203.555 16.5849 203.042 15.6986H207.839V14.0379H202.649V12.0644H199.632V14.0379H194.466V15.6986H199.24C198.735 16.5923 197.89 17.3296 196.713 17.9105C195.529 18.4988 194.322 18.7967 193.1 18.8116L194.518 20.1074C195.763 20.1074 197.075 19.8393 198.456 19.3105C198.908 19.1392 199.301 18.9382 199.655 18.7296C199.655 18.6701 199.67 18.6552 199.67 18.7073H199.648Z" fill="#575756"/>
<path d="M202.642 21.3138V19.2286H199.647V21.3138H192.542V22.9522H209.724V21.3138H202.642Z" fill="#575756"/>
<path d="M204.46 24.5906C203.547 23.8533 202.431 23.481 201.133 23.481C199.836 23.481 198.72 23.8459 197.792 24.5906C196.864 25.3279 196.404 26.229 196.404 27.2939C196.404 28.3589 196.864 29.2749 197.792 30.0196C198.712 30.7717 199.829 31.1441 201.133 31.1441C202.438 31.1441 203.547 30.7717 204.46 30.0196C205.38 29.2674 205.84 28.3589 205.84 27.2939C205.84 26.229 205.38 25.3279 204.46 24.5906ZM202.355 28.828C202.016 29.2823 201.609 29.5057 201.133 29.5057C200.658 29.5057 200.236 29.2823 199.904 28.828C199.572 28.3738 199.406 27.8599 199.406 27.2939C199.406 26.7279 199.572 26.229 199.904 25.7747C200.236 25.313 200.651 25.0821 201.133 25.0821C201.616 25.0821 202.016 25.313 202.355 25.7747C202.695 26.2364 202.868 26.7428 202.868 27.2939C202.868 27.845 202.695 28.3738 202.355 28.828Z" fill="#575756"/>
<path d="M224.176 12.2432V23.6597C223.807 23.7788 223.354 23.8756 222.819 23.9576C222.291 24.0395 221.695 24.0767 221.046 24.0767H218.738V22.7437C219.643 22.4532 220.382 21.9468 220.971 21.2319C221.551 20.517 221.846 19.7127 221.846 18.819C221.846 18.2679 221.725 17.7392 221.491 17.2551C221.257 16.7636 220.933 16.3391 220.533 15.9742H222.6V14.3135H218.738V12.1463H215.744V14.3135H211.904V15.9742H213.971C213.571 16.3391 213.255 16.7636 213.013 17.2551C212.779 17.7466 212.659 18.2679 212.659 18.819C212.659 19.7127 212.945 20.517 213.526 21.2319C214.099 21.9468 214.846 22.4532 215.744 22.7437V24.0767H211.791V25.7449H220.933C221.544 25.7449 222.125 25.6853 222.698 25.5662C223.271 25.447 223.761 25.2981 224.176 25.1044V30.3845H227.171V12.2432H224.176ZM217.252 21.3808C216.792 21.3808 216.385 21.1202 216.038 20.6063C215.691 20.085 215.517 19.4893 215.517 18.819C215.517 18.1488 215.691 17.5381 216.038 17.0242C216.385 16.5104 216.792 16.2572 217.252 16.2572C217.712 16.2572 218.127 16.5104 218.474 17.0242C218.813 17.5307 218.987 18.1339 218.987 18.819C218.987 19.5042 218.813 20.085 218.474 20.6063C218.135 21.1276 217.727 21.3808 217.252 21.3808Z" fill="#575756"/>
<path d="M91.2969 12.2581V14.5146H89.0115C88.5967 14.0305 88.0913 13.6507 87.4954 13.3677C86.8996 13.0847 86.2509 12.9358 85.557 12.9358C84.2672 12.9358 83.1659 13.4049 82.2382 14.3358C81.3104 15.2667 80.8503 16.3838 80.8503 17.687C80.8503 18.9903 81.3104 20.1148 82.2382 21.0383C83.1659 21.9617 84.2672 22.416 85.557 22.416C86.2207 22.416 86.8468 22.282 87.4426 22.0139C88.0385 21.7458 88.5439 21.3808 88.9738 20.9266H91.3045V30.3919H94.1028V12.2506H91.3045L91.2969 12.2581ZM86.8996 19.8914C86.5451 20.4797 86.0925 20.7776 85.5494 20.7776C85.0064 20.7776 84.5463 20.4797 84.1842 19.8914C83.8222 19.3031 83.6411 18.5658 83.6411 17.687C83.6411 16.8083 83.8222 16.1008 84.1842 15.505C84.5463 14.9167 84.9988 14.6188 85.5494 14.6188C86.1 14.6188 86.5451 14.9167 86.8996 15.505C87.2541 16.1008 87.4351 16.8232 87.4351 17.687C87.4351 18.5509 87.2541 19.2956 86.8996 19.8914ZM91.2969 19.2435H89.9845C90.0599 18.9978 90.1203 18.7445 90.1655 18.4913C90.2108 18.2381 90.2334 17.97 90.2334 17.6945C90.2334 17.419 90.2108 17.1732 90.1806 16.9274C90.1429 16.6817 90.0826 16.4359 89.9921 16.2051H91.3045V19.251L91.2969 19.2435Z" fill="#575756"/>
<path d="M97.8289 12.2581H95.0305V30.3994H97.8289V12.2581Z" fill="#575756"/>
<path d="M13.3958 16.3467H5.88329V13.2338H13.3883V5.74197L17.0163 4.8632V2.81522L1.1842 0.0225336C0.53553 -0.0966212 0 0.342762 0 0.990667V35.2849C0 35.9328 0.527987 36.3648 1.17666 36.2382L13.3883 33.8402V16.3467H13.3958Z" fill="#0096DC"/>
<path d="M29.2505 1.89903L17.0238 4.863V13.2336H24.5363V16.3466H17.0238V33.1325L13.3958 33.8474V38.9413L29.258 42.9702C29.8991 43.134 30.4196 42.7319 30.4196 42.0765V2.80014C30.4196 2.14478 29.8916 1.74264 29.258 1.89903H29.2505Z" fill="#65B32E"/>
<path d="M17.0163 16.3466H24.5288V13.2336H17.0163V4.86301L13.3883 5.74177V13.2336H5.8833V16.3466H13.3883V33.84L17.0163 33.1325V16.3466Z" fill="white"/>
</svg>
